<?xml version="1.0" standalone="no"?>
<!DOCTYPE svg PUBLIC "-//W3C//DTD SVG 20010904//EN"
 "http://www.w3.org/TR/2001/REC-SVG-20010904/DTD/svg10.dtd">
<svg version="1.0" xmlns="http://www.w3.org/2000/svg"
 width="192.000000pt" height="192.000000pt" viewBox="0 0 192.000000 192.000000"
 preserveAspectRatio="xMidYMid meet">
<metadata>
Created by potrace 1.11, written by Peter Selinger 2001-2013
</metadata>
<g transform="translate(0.000000,192.000000) scale(0.100000,-0.100000)"
fill="#000000" stroke="none">
<path d="M895 1861 c-4 -7 0 -20 9 -30 9 -10 16 -24 16 -32 0 -8 4 -19 10 -25
18 -18 18 -78 0 -109 -12 -20 -20 -64 -24 -135 -14 -208 -29 -259 -78 -260 -9
0 -30 -11 -46 -25 -17 -14 -35 -25 -40 -25 -6 0 -13 -8 -17 -17 -3 -10 -12
-27 -20 -37 -15 -20 -15 -20 -29 0 -20 27 -32 9 -18 -28 8 -22 8 -36 1 -50
-11 -20 -4 -84 10 -103 10 -13 -7 -78 -18 -71 -8 5 -5 -66 5 -131 3 -19 17
-42 35 -57 19 -16 28 -31 23 -38 -4 -7 -4 -10 1 -6 4 4 17 2 28 -4 11 -6 45
-12 75 -14 69 -3 79 -13 54 -53 -10 -17 -22 -28 -26 -24 -4 4 -4 0 -1 -10 5
-12 -2 -22 -24 -34 -32 -19 -52 -60 -55 -117 -2 -19 -7 -30 -15 -28 -7 1 -10
-2 -7 -7 3 -5 -1 -14 -9 -21 -14 -12 -131 -8 -177 6 -12 4 -18 0 -18 -10 0
-13 12 -16 57 -16 31 0 53 -3 50 -7 -4 -3 -2 -12 4 -19 8 -9 -3 -23 -44 -53
-61 -47 -78 -75 -65 -110 11 -30 60 -85 79 -89 8 -2 19 -8 24 -13 7 -7 3 -8
-10 -3 -11 4 -17 4 -13 -1 7 -7 16 -9 66 -14 7 0 11 -5 7 -10 -3 -5 0 -13 6
-17 7 -4 9 -3 6 3 -4 6 9 13 30 16 27 5 42 2 55 -10 18 -16 18 -16 12 0 -3 9
-11 17 -18 17 -6 0 -2 7 8 15 10 8 23 12 29 8 6 -3 7 -1 3 5 -7 12 99 126 111
119 5 -3 17 1 28 9 10 8 14 14 9 14 -6 0 -17 -6 -24 -12 -8 -7 3 6 24 29 22
23 44 39 49 36 6 -3 7 -2 4 4 -4 5 6 22 21 36 25 24 32 25 107 21 44 -2 234
-6 423 -9 l343 -6 -3 58 c-2 44 -7 58 -18 58 -9 0 -27 10 -40 23 -13 12 -27
22 -32 22 -4 0 -8 7 -8 15 0 8 -7 15 -15 15 -8 0 -15 7 -15 15 0 8 5 15 11 15
5 0 7 -4 4 -10 -3 -5 -1 -10 4 -10 13 0 14 10 1 30 -7 12 -12 12 -29 -4 -21
-19 -21 -19 -21 9 0 29 -23 54 -51 55 -9 0 -32 15 -52 34 -19 18 -48 43 -64
55 -15 13 -23 20 -18 17 6 -2 17 0 25 5 11 8 7 9 -17 6 -27 -3 -30 -1 -21 10
6 8 18 11 27 8 8 -3 12 -3 9 1 -4 3 4 23 17 43 14 19 25 46 25 58 0 12 5 25
11 29 6 3 7 9 3 13 -5 3 -17 22 -26 42 -18 40 -83 79 -131 79 -40 0 -91 -24
-142 -66 -25 -20 -45 -32 -45 -26 0 6 6 13 13 15 7 3 5 6 -5 6 -31 2 -19 20
15 24 l32 4 -36 1 c-33 2 -37 6 -48 42 -12 40 -29 51 -76 48 -36 -2 -45 2 -45
18 0 12 7 15 25 12 13 -3 22 -2 20 2 -6 10 61 61 69 53 8 -8 43 35 62 77 49
111 -68 207 -190 156 -19 -8 -37 -24 -41 -37 -7 -20 -8 -20 -17 -6 -17 32 -36
155 -25 166 7 7 7 18 -1 36 -17 36 -16 185 1 201 12 12 8 34 -7 34 -7 0 -16
13 -19 28 -10 48 -38 73 -89 79 -29 3 -48 1 -53 -6z m145 -1082 c0 -5 -9 -4
-19 3 -11 7 -17 16 -14 20 5 10 33 -10 33 -23z m485 -88 c-3 -6 3 -15 12 -21
16 -11 16 -11 -2 -6 -19 6 -19 6 -1 -9 10 -8 23 -12 27 -9 5 3 9 -1 9 -9 0 -8
9 -22 20 -32 11 -10 20 -24 20 -32 0 -7 8 -13 18 -13 19 0 62 -34 62 -50 0 -5
8 -6 17 -3 12 5 15 2 10 -10 -3 -9 -2 -17 3 -17 17 0 60 -43 53 -53 -4 -6 0
-8 10 -4 11 4 34 -10 69 -43 l53 -50 -274 0 c-245 0 -273 2 -267 16 3 9 6 28
6 44 0 16 7 36 16 44 8 9 11 16 5 16 -5 0 -14 -8 -20 -17 -9 -17 -11 -17 -25
2 -8 12 -10 22 -5 26 11 7 1 39 -12 39 -5 0 -9 8 -9 18 0 14 -2 15 -10 2 -5
-8 -10 -10 -10 -5 0 6 16 22 34 38 37 29 52 35 40 15 -4 -7 -3 -8 5 -4 6 4 9
11 6 16 -7 11 35 41 47 34 5 -3 7 -1 6 5 -2 7 17 27 42 46 48 37 55 41 45 26z
m221 -139 c-4 -3 -11 0 -16 8 -15 24 -11 33 6 15 9 -9 13 -19 10 -23z m-534
-121 c-10 -6 -9 -11 4 -22 9 -8 19 -13 22 -11 2 2 13 -10 23 -27 18 -29 18
-31 1 -31 -10 0 -24 6 -31 13 -9 7 -12 8 -7 0 4 -8 -13 -11 -61 -11 l-68 1 59
53 c33 30 62 52 65 48 3 -3 0 -9 -7 -13z m-524 -97 c-10 -10 -21 -13 -29 -8
-12 7 0 14 41 23 2 1 -3 -6 -12 -15z"/>
<path d="M1456 623 c-4 -9 -2 -21 4 -27 7 -7 10 -7 10 1 0 6 3 18 6 27 3 9 2
16 -4 16 -5 0 -13 -8 -16 -17z"/>
<path d="M1175 401 c-3 -5 -2 -12 3 -15 5 -3 9 1 9 9 0 17 -3 19 -12 6z"/>
<path d="M1671 936 c11 -9 249 -15 249 -6 0 6 -50 10 -127 10 -69 0 -124 -2
-122 -4z"/>
<path d="M438 884 c-3 -35 -6 -39 -27 -36 -13 2 -55 -4 -92 -14 -38 -10 -71
-15 -74 -12 -3 3 -9 25 -14 49 -8 42 -9 41 -10 -28 -1 -68 10 -97 22 -54 3 13
17 20 48 24 24 3 64 9 88 13 36 6 43 5 36 -7 -5 -8 4 -1 18 14 28 29 33 52 18
76 -7 11 -10 4 -13 -25z"/>
<path d="M1678 903 c12 -2 30 -2 40 0 9 3 -1 5 -23 4 -22 0 -30 -2 -17 -4z"/>
<path d="M1783 903 c15 -2 37 -2 50 0 12 2 0 4 -28 4 -27 0 -38 -2 -22 -4z"/>
<path d="M24 867 c-17 -10 -21 -22 -21 -64 -1 -40 3 -53 14 -53 8 0 11 -5 7
-12 -4 -7 -3 -8 5 -4 9 6 9 11 0 22 -7 8 -7 14 -1 14 5 0 13 -7 16 -16 5 -12
21 -15 87 -13 44 2 83 7 86 13 3 5 1 6 -5 2 -14 -8 -22 15 -11 35 5 10 1 19
-13 28 -17 11 -20 11 -16 -1 4 -10 -6 -12 -47 -10 -47 3 -54 7 -60 29 -5 21
-8 23 -22 11 -15 -12 -15 -11 -4 10 13 25 13 25 -15 9z m156 -92 c0 -8 -3 -15
-6 -15 -3 0 -12 7 -20 15 -14 13 -13 15 5 15 12 0 21 -6 21 -15z"/>
<path d="M445 830 c-3 -5 -1 -10 4 -10 6 0 11 5 11 10 0 6 -2 10 -4 10 -3 0
-8 -4 -11 -10z"/>
<path d="M300 785 c0 -8 7 -15 15 -15 9 0 12 6 9 15 -4 8 -10 15 -15 15 -5 0
-9 -7 -9 -15z"/>
<path d="M1635 789 c-13 -20 -16 -69 -5 -69 6 0 8 5 5 10 -3 6 -3 10 2 10 4 0
8 14 8 30 1 33 -1 35 -10 19z"/>
<path d="M1691 734 c0 -11 3 -14 6 -6 3 7 2 16 -1 19 -3 4 -6 -2 -5 -13z"/>
<path d="M650 720 c0 -5 5 -10 11 -10 5 0 7 5 4 10 -3 6 -8 10 -11 10 -2 0 -4
-4 -4 -10z"/>
<path d="M1854 696 c-3 -14 -1 -33 5 -43 8 -15 10 -10 11 25 0 47 -6 55 -16
18z"/>
<path d="M1810 625 c0 -85 15 -85 16 0 1 36 -2 65 -7 65 -5 0 -9 -29 -9 -65z"/>
<path d="M1691 624 c0 -11 3 -14 6 -6 3 7 2 16 -1 19 -3 4 -6 -2 -5 -13z"/>
<path d="M1781 624 c0 -11 3 -14 6 -6 3 7 2 16 -1 19 -3 4 -6 -2 -5 -13z"/>
<path d="M755 509 c-4 -6 -5 -12 -2 -15 2 -3 7 2 10 11 7 17 1 20 -8 4z"/>
<path d="M735 460 c-3 -6 1 -7 9 -4 18 7 21 14 7 14 -6 0 -13 -4 -16 -10z"/>
<path d="M735 430 c3 -5 8 -10 11 -10 2 0 4 5 4 10 0 6 -5 10 -11 10 -5 0 -7
-4 -4 -10z"/>
<path d="M596 307 c3 -10 9 -15 12 -12 3 3 0 11 -7 18 -10 9 -11 8 -5 -6z"/>
<path d="M1095 311 c-6 -11 9 -23 19 -14 9 9 7 23 -3 23 -6 0 -12 -4 -16 -9z"/>
<path d="M1885 290 c3 -5 13 -10 21 -10 8 0 14 5 14 10 0 6 -9 10 -21 10 -11
0 -17 -4 -14 -10z"/>
<path d="M1295 280 c-3 -5 -1 -10 4 -10 6 0 11 5 11 10 0 6 -2 10 -4 10 -3 0
-8 -4 -11 -10z"/>
<path d="M510 180 c0 -11 2 -20 4 -20 2 0 6 9 9 20 3 11 1 20 -4 20 -5 0 -9
-9 -9 -20z"/>
<path d="M545 111 c-3 -5 -2 -12 3 -15 5 -3 9 1 9 9 0 17 -3 19 -12 6z"/>
<path d="M1097 93 c-11 -10 -8 -93 3 -93 6 0 10 23 10 50 0 51 -1 55 -13 43z"/>
<path d="M818 43 c6 -2 18 -2 25 0 6 3 1 5 -13 5 -14 0 -19 -2 -12 -5z"/>
<path d="M1495 40 c-3 -5 -1 -18 4 -27 9 -16 10 -14 11 10 0 28 -5 34 -15 17z"/>
<path d="M871 14 c0 -11 3 -14 6 -6 3 7 2 16 -1 19 -3 4 -6 -2 -5 -13z"/>
</g>
</svg>
